<svg width="66" height="46" viewBox="0 0 66 46" fill="none" xmlns="http://www.w3.org/2000/svg">
<mask id="path-1-outside-1_11_6094" maskUnits="userSpaceOnUse" x="-0.499756" y="-0.500076" width="67" height="46" fill="black">
<rect fill="white" x="-0.499756" y="-0.500076" width="67" height="46"/>
<path d="M15.6842 26.0959C15.7151 26.1165 15.7203 26.1527 15.6996 26.2043C15.679 26.2559 15.6326 26.3075 15.5603 26.3591C15.55 26.3591 15.5448 26.3591 15.5448 26.3591C15.5448 26.3591 15.5448 26.3642 15.5448 26.3745C12.8926 28.036 10.3746 29.3622 7.99065 30.3529C5.60675 31.3436 3.77497 31.7873 2.4953 31.6841C1.65938 31.6325 1.07115 31.3487 0.730591 30.8327C0.348754 30.0691 0.441634 29.1145 1.00923 27.969C1.17435 27.649 1.35495 27.3498 1.55102 27.0711C1.70582 26.8441 1.86062 26.6274 2.01542 26.421C2.7275 25.6057 3.31573 25.0123 3.78013 24.6408C3.82141 24.5995 3.85753 24.5634 3.88849 24.5324C3.89881 24.5324 3.90397 24.5273 3.90397 24.517C4.22388 24.259 4.53348 24.0164 4.83276 23.7894C6.96898 22.2414 8.53245 21.6532 9.52316 22.0247C9.76052 22.1279 9.94112 22.2878 10.065 22.5046C10.1888 22.711 10.2043 22.9586 10.1114 23.2476C9.97724 23.6088 9.68828 23.939 9.24452 24.2383C8.81109 24.5376 8.29509 24.8007 7.69654 25.0278C6.42719 25.5025 5.23524 25.8585 4.12068 26.0959C3.98653 26.1165 3.79045 26.1991 3.53245 26.3436C3.28477 26.4777 3.02161 26.6841 2.74298 26.9628C2.73266 26.9731 2.7275 26.9783 2.7275 26.9783C2.70686 27.0092 2.68106 27.0402 2.6501 27.0711C2.04122 27.7522 1.6439 28.4953 1.45815 29.3002C1.45815 29.8678 1.6697 30.2909 2.09282 30.5696C2.51594 30.8379 3.02161 30.9721 3.60985 30.9721C4.76568 30.9721 6.38075 30.5438 8.45505 29.6872C10.5294 28.8307 12.8875 27.6336 15.5294 26.0959C15.6016 26.0546 15.6532 26.0546 15.6842 26.0959ZM4.26 25.6005C4.17744 25.6625 4.12584 25.7141 4.1052 25.7553C4.08456 25.7966 4.131 25.8069 4.24452 25.7863C4.81212 25.6521 5.47775 25.4561 6.24143 25.1981C6.7987 25.0123 7.25794 24.8162 7.61914 24.6098C7.99065 24.3931 8.14545 24.197 8.08353 24.0216C8.08353 24.0216 8.08353 24.0164 8.08353 24.0061C8.08353 24.0061 8.07837 24.001 8.06805 23.9906C8.06805 23.9803 8.06805 23.9752 8.06805 23.9752C7.98549 23.8823 7.84101 23.841 7.63462 23.8513C7.4695 23.872 7.27342 23.9184 7.04638 23.9906C7.03606 23.9906 7.0309 23.9906 7.0309 23.9906C7.0309 24.001 7.0309 24.0061 7.0309 24.0061C6.99994 24.0061 6.96898 24.0164 6.93802 24.0371C6.93802 24.0371 6.93286 24.0371 6.92254 24.0371C6.92254 24.0371 6.91738 24.0371 6.90706 24.0371C6.62842 24.1403 6.31367 24.2951 5.96279 24.5015C5.41583 24.7904 4.84824 25.1568 4.26 25.6005Z"/>
<path d="M34.6012 26.0959C34.6837 26.0649 34.7353 26.0649 34.756 26.0959C34.7766 26.1269 34.7715 26.1733 34.7405 26.2352C34.7095 26.2868 34.6528 26.3281 34.5702 26.3591C33.5382 26.7719 32.3102 27.2827 30.886 27.8916C30.4319 28.098 30.1275 28.2889 29.9727 28.4643C29.8282 28.6294 29.7353 28.7739 29.6941 28.8978C29.6941 28.8978 29.6941 28.9029 29.6941 28.9132C29.6837 28.9132 29.6786 28.9184 29.6786 28.9287C29.6167 29.0629 29.498 29.2899 29.3225 29.6098C29.1471 29.9297 28.9768 30.229 28.8117 30.5077C26.273 34.4086 22.6094 37.8451 17.821 40.8173C15.788 42.0557 13.8272 43.0412 11.9386 43.7739C10.0501 44.517 8.50727 44.8988 7.31016 44.9194C7.31016 44.9194 7.305 44.9194 7.29468 44.9194C6.789 44.9091 6.40717 44.8317 6.14917 44.6872C5.88085 44.5531 5.70541 44.388 5.62285 44.1919C5.52997 44.0061 5.48353 43.8358 5.48353 43.681C5.42161 42.7006 6.43812 41.3745 8.53307 39.7027C9.57538 38.8668 10.8757 37.969 12.434 37.0092C13.9923 36.0495 15.7931 34.9865 17.8365 33.8204C21.3659 31.8183 24.5444 30.2084 27.3721 28.9906C27.661 28.8565 27.8571 28.7326 27.9603 28.6191C28.0738 28.5056 28.1461 28.4024 28.177 28.3095C28.3937 27.7419 28.5176 27.1898 28.5485 26.6532C28.5795 26.1062 28.4402 25.7192 28.1306 25.4922C27.6146 25.1826 26.6445 25.229 25.2204 25.6315C23.8065 26.0237 22.047 26.8338 19.9417 28.0618C17.8365 29.2899 15.5042 31.003 12.9448 33.2012C12.8932 33.2424 12.8004 33.3044 12.6662 33.3869C12.5217 33.4592 12.3669 33.5056 12.2018 33.5262C12.0367 33.5366 11.8974 33.4695 11.7838 33.325C11.5671 33.0257 11.5465 32.5613 11.7219 31.9318C11.887 31.3023 12.2895 30.4251 12.9294 29.3002C14.5393 26.4623 17.4753 22.195 21.7374 16.4984C21.7374 16.4984 21.7374 16.4932 21.7374 16.4829C21.7477 16.4829 21.7529 16.4829 21.7529 16.4829C25.8912 11.1785 29.24 7.13821 31.7993 4.36215C32.8932 3.17536 33.7601 2.30849 34.3999 1.76153C35.0501 1.20426 35.5403 0.848221 35.8705 0.693422C36.2111 0.538623 36.4742 0.476704 36.66 0.507664C37.1244 0.538623 37.3927 0.786301 37.465 1.2507C37.4753 1.99373 37.0212 3.11344 36.1027 4.60983C35.1946 6.0959 34.2348 7.52005 33.2235 8.88228C32.2121 10.2445 31.562 11.1011 31.273 11.4519C30.0346 13.0412 28.2699 15.0123 25.9789 17.3652C23.6879 19.7182 21.0098 22.1743 17.9448 24.7337C17.9448 24.7337 17.9448 24.7388 17.9448 24.7492C17.9345 24.7492 17.9242 24.7543 17.9139 24.7646C17.7488 24.8988 17.4804 25.131 17.1089 25.4612C16.7477 25.7811 16.3762 26.1475 15.9944 26.5603C15.7983 26.7977 15.6177 27.0298 15.4526 27.2569C15.4319 27.2878 15.4061 27.3136 15.3752 27.3343C14.3225 28.8307 13.5743 29.9659 13.1306 30.7399C12.6765 31.5139 12.465 32.0453 12.4959 32.3343C12.4959 32.3652 12.5062 32.3962 12.5269 32.4272C12.5475 32.4581 12.5836 32.4684 12.6352 32.4581C12.6868 32.4375 12.7694 32.3859 12.8829 32.3033C15.112 30.518 17.3205 28.9494 19.5083 27.5974C21.6961 26.2455 23.6569 25.2755 25.3907 24.6872C27.1347 24.0887 28.435 24.0268 29.2916 24.5015C29.6115 24.6666 29.885 24.9813 30.112 25.4457C30.3391 25.8998 30.3649 26.5655 30.1894 27.4426C30.1688 27.5974 30.1843 27.6903 30.2359 27.7213C30.2875 27.7419 30.37 27.7264 30.4835 27.6748C30.5248 27.6542 30.5661 27.6387 30.6074 27.6284C30.628 27.6181 30.6486 27.6078 30.6693 27.5974C32.207 26.9886 33.5176 26.4881 34.6012 26.0959ZM17.3721 24.5944C17.3514 24.6253 17.3256 24.6666 17.2947 24.7182C17.274 24.7595 17.2534 24.8007 17.2328 24.842C17.2224 24.873 17.2224 24.8936 17.2328 24.9039C17.2431 24.9143 17.2792 24.9039 17.3411 24.873C17.403 24.842 17.4959 24.7749 17.6198 24.6718C20.5919 22.1743 23.4453 19.4189 26.1801 16.4055C28.9149 13.3921 31.1698 10.6109 32.9448 8.06184C34.7199 5.5025 35.6641 3.68104 35.7776 2.59745C35.0037 3.25792 33.5279 4.76979 31.3504 7.13305C29.1729 9.48599 26.2988 12.9277 22.7281 17.4581C20.5506 20.3271 18.7653 22.7058 17.3721 24.5944ZM27.4804 29.7491C27.5527 29.6253 27.5785 29.5428 27.5578 29.5015C27.5475 29.4602 27.5062 29.4447 27.434 29.455C27.3721 29.4654 27.305 29.4912 27.2328 29.5324C24.467 30.8121 21.4175 32.3962 18.0842 34.2848C14.9056 36.132 12.4701 37.6697 10.7776 38.8978C9.07486 40.1361 7.91903 41.1062 7.31016 41.808C6.69096 42.52 6.41232 43.0102 6.47424 43.2786C6.69096 43.8978 7.37208 44.1196 8.51759 43.9442C9.6631 43.7688 11.0872 43.2734 12.79 42.4581C14.4928 41.6429 16.2782 40.5851 18.1461 39.2848C20.014 37.9948 21.7735 36.5345 23.4247 34.9039C25.0759 33.2837 26.4278 31.5655 27.4804 29.7491Z"/>
<path d="M47.3263 26.0959C47.3572 26.1165 47.3624 26.1527 47.3417 26.2043C47.3211 26.2559 47.2747 26.3075 47.2024 26.3591C47.1921 26.3591 47.1869 26.3591 47.1869 26.3591C47.1869 26.3591 47.1869 26.3642 47.1869 26.3745C44.5347 28.036 42.0167 29.3622 39.6328 30.3529C37.2489 31.3436 35.4171 31.7873 34.1374 31.6841C33.3015 31.6325 32.7133 31.3487 32.3727 30.8327C31.9909 30.0691 32.0837 29.1145 32.6513 27.969C32.8165 27.649 32.9971 27.3498 33.1931 27.0711C33.3479 26.8441 33.5027 26.6274 33.6575 26.421C34.3696 25.6057 34.9578 25.0123 35.4222 24.6408C35.4635 24.5995 35.4996 24.5634 35.5306 24.5324C35.5409 24.5324 35.5461 24.5273 35.5461 24.517C35.866 24.259 36.1756 24.0164 36.4749 23.7894C38.6111 22.2414 40.1746 21.6532 41.1653 22.0247C41.4026 22.1279 41.5832 22.2878 41.7071 22.5046C41.8309 22.711 41.8464 22.9586 41.7535 23.2476C41.6193 23.6088 41.3304 23.939 40.8866 24.2383C40.4532 24.5376 39.9372 24.8007 39.3386 25.0278C38.0693 25.5025 36.8773 25.8585 35.7628 26.0959C35.6286 26.1165 35.4326 26.1991 35.1746 26.3436C34.9269 26.4777 34.6637 26.6841 34.3851 26.9628C34.3748 26.9731 34.3696 26.9783 34.3696 26.9783C34.349 27.0092 34.3232 27.0402 34.2922 27.0711C33.6833 27.7522 33.286 28.4953 33.1003 29.3002C33.1003 29.8678 33.3118 30.2909 33.7349 30.5696C34.158 30.8379 34.6637 30.9721 35.252 30.9721C36.4078 30.9721 38.0229 30.5438 40.0972 29.6872C42.1715 28.8307 44.5296 27.6336 47.1715 26.0959C47.2437 26.0546 47.2953 26.0546 47.3263 26.0959ZM35.9021 25.6005C35.8195 25.6625 35.7679 25.7141 35.7473 25.7553C35.7267 25.7966 35.7731 25.8069 35.8866 25.7863C36.4542 25.6521 37.1199 25.4561 37.8835 25.1981C38.4408 25.0123 38.9 24.8162 39.2612 24.6098C39.6328 24.3931 39.7876 24.197 39.7256 24.0216C39.7256 24.0216 39.7256 24.0164 39.7256 24.0061C39.7256 24.0061 39.7205 24.001 39.7102 23.9906C39.7102 23.9803 39.7102 23.9752 39.7102 23.9752C39.6276 23.8823 39.4831 23.841 39.2767 23.8513C39.1116 23.872 38.9155 23.9184 38.6885 23.9906C38.6782 23.9906 38.673 23.9906 38.673 23.9906C38.673 24.001 38.673 24.0061 38.673 24.0061C38.642 24.0061 38.6111 24.0164 38.5801 24.0371C38.5801 24.0371 38.575 24.0371 38.5646 24.0371C38.5646 24.0371 38.5595 24.0371 38.5492 24.0371C38.2705 24.1403 37.9558 24.2951 37.6049 24.5015C37.0579 24.7904 36.4903 25.1568 35.9021 25.6005Z"/>
<path d="M65.33 26.1114C65.3713 26.0701 65.4074 26.0546 65.4383 26.0649C65.4796 26.0649 65.5002 26.0856 65.5002 26.1269C65.5002 26.1578 65.4744 26.1991 65.4228 26.2507C62.3475 28.7997 59.7314 30.6521 57.5746 31.808C55.428 32.9638 53.8078 33.2734 52.7139 32.7368C52.0018 32.3549 51.5838 31.6893 51.46 30.7399C51.3465 29.7904 51.5426 28.6398 52.0482 27.2878C52.1411 27.0505 52.2443 26.8131 52.3578 26.5758C52.5539 26.1733 52.6932 25.8018 52.7758 25.4612C52.7964 25.3374 52.7706 25.2703 52.6984 25.26C52.6365 25.2393 52.5539 25.2548 52.4507 25.3064C52.3475 25.3477 52.2495 25.3941 52.1566 25.4457C51.3826 25.9824 50.3919 26.8028 49.1845 27.907C47.977 29.0113 46.847 30.0691 45.7944 31.0804C44.7521 32.0814 44.0709 32.711 43.751 32.969C43.4827 33.196 43.2092 33.3663 42.9306 33.4798C42.6519 33.583 42.4559 33.5882 42.3424 33.4953C42.2185 33.3921 42.2546 33.1392 42.4507 32.7368C42.4714 32.6955 42.6881 32.324 43.1009 31.6222C43.5033 30.9101 44.0142 30.0536 44.6334 29.0526C45.2526 28.0412 45.8872 27.0608 46.5374 26.1114C46.6922 25.8947 46.8728 25.7657 47.0792 25.7244C47.2959 25.6728 47.5075 25.6934 47.7139 25.7863C47.9203 25.8689 48.0441 25.9927 48.0854 26.1578C48.137 26.3126 48.0751 26.5397 47.8996 26.8389C47.7035 27.1279 47.265 27.6697 46.5838 28.4643C45.7582 29.4344 44.9275 30.4664 44.0916 31.5603C44.009 31.6841 43.9368 31.8028 43.8749 31.9163C43.8026 32.0195 43.7613 32.1021 43.751 32.164C43.7304 32.2259 43.7613 32.2414 43.8439 32.2104C43.9265 32.1692 44.0761 32.0557 44.2928 31.8699C44.9327 31.292 45.717 30.5541 46.6458 29.6563C47.6158 28.7275 48.6065 27.7987 49.6179 26.8699C50.6396 25.9308 51.5477 25.1619 52.3424 24.5634C53.137 23.9545 53.6943 23.6862 54.0142 23.7584C54.5199 23.9029 54.7314 24.2332 54.6489 24.7492C54.5663 25.2651 54.2051 26.1527 53.5653 27.4117C53.2247 28.1238 52.9719 28.8513 52.8067 29.5943C52.6519 30.3271 52.621 30.9617 52.7139 31.4984C52.8171 32.0247 53.0854 32.3343 53.5188 32.4272C54.5302 32.5613 55.6654 32.3394 56.9244 31.7615C58.1937 31.1836 59.4941 30.4199 60.8253 29.4705C62.1669 28.5211 63.4621 27.5562 64.7108 26.5758C64.9172 26.421 65.1236 26.2662 65.33 26.1114Z"/>
</mask>
<path d="M15.6842 26.0959C15.7151 26.1165 15.7203 26.1527 15.6996 26.2043C15.679 26.2559 15.6326 26.3075 15.5603 26.3591C15.55 26.3591 15.5448 26.3591 15.5448 26.3591C15.5448 26.3591 15.5448 26.3642 15.5448 26.3745C12.8926 28.036 10.3746 29.3622 7.99065 30.3529C5.60675 31.3436 3.77497 31.7873 2.4953 31.6841C1.65938 31.6325 1.07115 31.3487 0.730591 30.8327C0.348754 30.0691 0.441634 29.1145 1.00923 27.969C1.17435 27.649 1.35495 27.3498 1.55102 27.0711C1.70582 26.8441 1.86062 26.6274 2.01542 26.421C2.7275 25.6057 3.31573 25.0123 3.78013 24.6408C3.82141 24.5995 3.85753 24.5634 3.88849 24.5324C3.89881 24.5324 3.90397 24.5273 3.90397 24.517C4.22388 24.259 4.53348 24.0164 4.83276 23.7894C6.96898 22.2414 8.53245 21.6532 9.52316 22.0247C9.76052 22.1279 9.94112 22.2878 10.065 22.5046C10.1888 22.711 10.2043 22.9586 10.1114 23.2476C9.97724 23.6088 9.68828 23.939 9.24452 24.2383C8.81109 24.5376 8.29509 24.8007 7.69654 25.0278C6.42719 25.5025 5.23524 25.8585 4.12068 26.0959C3.98653 26.1165 3.79045 26.1991 3.53245 26.3436C3.28477 26.4777 3.02161 26.6841 2.74298 26.9628C2.73266 26.9731 2.7275 26.9783 2.7275 26.9783C2.70686 27.0092 2.68106 27.0402 2.6501 27.0711C2.04122 27.7522 1.6439 28.4953 1.45815 29.3002C1.45815 29.8678 1.6697 30.2909 2.09282 30.5696C2.51594 30.8379 3.02161 30.9721 3.60985 30.9721C4.76568 30.9721 6.38075 30.5438 8.45505 29.6872C10.5294 28.8307 12.8875 27.6336 15.5294 26.0959C15.6016 26.0546 15.6532 26.0546 15.6842 26.0959ZM4.26 25.6005C4.17744 25.6625 4.12584 25.7141 4.1052 25.7553C4.08456 25.7966 4.131 25.8069 4.24452 25.7863C4.81212 25.6521 5.47775 25.4561 6.24143 25.1981C6.7987 25.0123 7.25794 24.8162 7.61914 24.6098C7.99065 24.3931 8.14545 24.197 8.08353 24.0216C8.08353 24.0216 8.08353 24.0164 8.08353 24.0061C8.08353 24.0061 8.07837 24.001 8.06805 23.9906C8.06805 23.9803 8.06805 23.9752 8.06805 23.9752C7.98549 23.8823 7.84101 23.841 7.63462 23.8513C7.4695 23.872 7.27342 23.9184 7.04638 23.9906C7.03606 23.9906 7.0309 23.9906 7.0309 23.9906C7.0309 24.001 7.0309 24.0061 7.0309 24.0061C6.99994 24.0061 6.96898 24.0164 6.93802 24.0371C6.93802 24.0371 6.93286 24.0371 6.92254 24.0371C6.92254 24.0371 6.91738 24.0371 6.90706 24.0371C6.62842 24.1403 6.31367 24.2951 5.96279 24.5015C5.41583 24.7904 4.84824 25.1568 4.26 25.6005Z" fill="#2563EB"/>
<path d="M15.6842 26.0959C15.7151 26.1165 15.7203 26.1527 15.6996 26.2043C15.679 26.2559 15.6326 26.3075 15.5603 26.3591C15.55 26.3591 15.5448 26.3591 15.5448 26.3591C15.5448 26.3591 15.5448 26.3642 15.5448 26.3745C12.8926 28.036 10.3746 29.3622 7.99065 30.3529C5.60675 31.3436 3.77497 31.7873 2.4953 31.6841C1.65938 31.6325 1.07115 31.3487 0.730591 30.8327C0.348754 30.0691 0.441634 29.1145 1.00923 27.969C1.17435 27.649 1.35495 27.3498 1.55102 27.0711C1.70582 26.8441 1.86062 26.6274 2.01542 26.421C2.7275 25.6057 3.31573 25.0123 3.78013 24.6408C3.82141 24.5995 3.85753 24.5634 3.88849 24.5324C3.89881 24.5324 3.90397 24.5273 3.90397 24.517C4.22388 24.259 4.53348 24.0164 4.83276 23.7894C6.96898 22.2414 8.53245 21.6532 9.52316 22.0247C9.76052 22.1279 9.94112 22.2878 10.065 22.5046C10.1888 22.711 10.2043 22.9586 10.1114 23.2476C9.97724 23.6088 9.68828 23.939 9.24452 24.2383C8.81109 24.5376 8.29509 24.8007 7.69654 25.0278C6.42719 25.5025 5.23524 25.8585 4.12068 26.0959C3.98653 26.1165 3.79045 26.1991 3.53245 26.3436C3.28477 26.4777 3.02161 26.6841 2.74298 26.9628C2.73266 26.9731 2.7275 26.9783 2.7275 26.9783C2.70686 27.0092 2.68106 27.0402 2.6501 27.0711C2.04122 27.7522 1.6439 28.4953 1.45815 29.3002C1.45815 29.8678 1.6697 30.2909 2.09282 30.5696C2.51594 30.8379 3.02161 30.9721 3.60985 30.9721C4.76568 30.9721 6.38075 30.5438 8.45505 29.6872C10.5294 28.8307 12.8875 27.6336 15.5294 26.0959C15.6016 26.0546 15.6532 26.0546 15.6842 26.0959ZM4.26 25.6005C4.17744 25.6625 4.12584 25.7141 4.1052 25.7553C4.08456 25.7966 4.131 25.8069 4.24452 25.7863C4.81212 25.6521 5.47775 25.4561 6.24143 25.1981C6.7987 25.0123 7.25794 24.8162 7.61914 24.6098C7.99065 24.3931 8.14545 24.197 8.08353 24.0216C8.08353 24.0216 8.08353 24.0164 8.08353 24.0061C8.08353 24.0061 8.07837 24.001 8.06805 23.9906C8.06805 23.9803 8.06805 23.9752 8.06805 23.9752C7.98549 23.8823 7.84101 23.841 7.63462 23.8513C7.4695 23.872 7.27342 23.9184 7.04638 23.9906C7.03606 23.9906 7.0309 23.9906 7.0309 23.9906C7.0309 24.001 7.0309 24.0061 7.0309 24.0061C6.99994 24.0061 6.96898 24.0164 6.93802 24.0371C6.93802 24.0371 6.93286 24.0371 6.92254 24.0371C6.92254 24.0371 6.91738 24.0371 6.90706 24.0371C6.62842 24.1403 6.31367 24.2951 5.96279 24.5015C5.41583 24.7904 4.84824 25.1568 4.26 25.6005Z" fill="black" fill-opacity="0.2"/>
<path d="M34.6012 26.0959C34.6837 26.0649 34.7353 26.0649 34.756 26.0959C34.7766 26.1269 34.7715 26.1733 34.7405 26.2352C34.7095 26.2868 34.6528 26.3281 34.5702 26.3591C33.5382 26.7719 32.3102 27.2827 30.886 27.8916C30.4319 28.098 30.1275 28.2889 29.9727 28.4643C29.8282 28.6294 29.7353 28.7739 29.6941 28.8978C29.6941 28.8978 29.6941 28.9029 29.6941 28.9132C29.6837 28.9132 29.6786 28.9184 29.6786 28.9287C29.6167 29.0629 29.498 29.2899 29.3225 29.6098C29.1471 29.9297 28.9768 30.229 28.8117 30.5077C26.273 34.4086 22.6094 37.8451 17.821 40.8173C15.788 42.0557 13.8272 43.0412 11.9386 43.7739C10.0501 44.517 8.50727 44.8988 7.31016 44.9194C7.31016 44.9194 7.305 44.9194 7.29468 44.9194C6.789 44.9091 6.40717 44.8317 6.14917 44.6872C5.88085 44.5531 5.70541 44.388 5.62285 44.1919C5.52997 44.0061 5.48353 43.8358 5.48353 43.681C5.42161 42.7006 6.43812 41.3745 8.53307 39.7027C9.57538 38.8668 10.8757 37.969 12.434 37.0092C13.9923 36.0495 15.7931 34.9865 17.8365 33.8204C21.3659 31.8183 24.5444 30.2084 27.3721 28.9906C27.661 28.8565 27.8571 28.7326 27.9603 28.6191C28.0738 28.5056 28.1461 28.4024 28.177 28.3095C28.3937 27.7419 28.5176 27.1898 28.5485 26.6532C28.5795 26.1062 28.4402 25.7192 28.1306 25.4922C27.6146 25.1826 26.6445 25.229 25.2204 25.6315C23.8065 26.0237 22.047 26.8338 19.9417 28.0618C17.8365 29.2899 15.5042 31.003 12.9448 33.2012C12.8932 33.2424 12.8004 33.3044 12.6662 33.3869C12.5217 33.4592 12.3669 33.5056 12.2018 33.5262C12.0367 33.5366 11.8974 33.4695 11.7838 33.325C11.5671 33.0257 11.5465 32.5613 11.7219 31.9318C11.887 31.3023 12.2895 30.4251 12.9294 29.3002C14.5393 26.4623 17.4753 22.195 21.7374 16.4984C21.7374 16.4984 21.7374 16.4932 21.7374 16.4829C21.7477 16.4829 21.7529 16.4829 21.7529 16.4829C25.8912 11.1785 29.24 7.13821 31.7993 4.36215C32.8932 3.17536 33.7601 2.30849 34.3999 1.76153C35.0501 1.20426 35.5403 0.848221 35.8705 0.693422C36.2111 0.538623 36.4742 0.476704 36.66 0.507664C37.1244 0.538623 37.3927 0.786301 37.465 1.2507C37.4753 1.99373 37.0212 3.11344 36.1027 4.60983C35.1946 6.0959 34.2348 7.52005 33.2235 8.88228C32.2121 10.2445 31.562 11.1011 31.273 11.4519C30.0346 13.0412 28.2699 15.0123 25.9789 17.3652C23.6879 19.7182 21.0098 22.1743 17.9448 24.7337C17.9448 24.7337 17.9448 24.7388 17.9448 24.7492C17.9345 24.7492 17.9242 24.7543 17.9139 24.7646C17.7488 24.8988 17.4804 25.131 17.1089 25.4612C16.7477 25.7811 16.3762 26.1475 15.9944 26.5603C15.7983 26.7977 15.6177 27.0298 15.4526 27.2569C15.4319 27.2878 15.4061 27.3136 15.3752 27.3343C14.3225 28.8307 13.5743 29.9659 13.1306 30.7399C12.6765 31.5139 12.465 32.0453 12.4959 32.3343C12.4959 32.3652 12.5062 32.3962 12.5269 32.4272C12.5475 32.4581 12.5836 32.4684 12.6352 32.4581C12.6868 32.4375 12.7694 32.3859 12.8829 32.3033C15.112 30.518 17.3205 28.9494 19.5083 27.5974C21.6961 26.2455 23.6569 25.2755 25.3907 24.6872C27.1347 24.0887 28.435 24.0268 29.2916 24.5015C29.6115 24.6666 29.885 24.9813 30.112 25.4457C30.3391 25.8998 30.3649 26.5655 30.1894 27.4426C30.1688 27.5974 30.1843 27.6903 30.2359 27.7213C30.2875 27.7419 30.37 27.7264 30.4835 27.6748C30.5248 27.6542 30.5661 27.6387 30.6074 27.6284C30.628 27.6181 30.6486 27.6078 30.6693 27.5974C32.207 26.9886 33.5176 26.4881 34.6012 26.0959ZM17.3721 24.5944C17.3514 24.6253 17.3256 24.6666 17.2947 24.7182C17.274 24.7595 17.2534 24.8007 17.2328 24.842C17.2224 24.873 17.2224 24.8936 17.2328 24.9039C17.2431 24.9143 17.2792 24.9039 17.3411 24.873C17.403 24.842 17.4959 24.7749 17.6198 24.6718C20.5919 22.1743 23.4453 19.4189 26.1801 16.4055C28.9149 13.3921 31.1698 10.6109 32.9448 8.06184C34.7199 5.5025 35.6641 3.68104 35.7776 2.59745C35.0037 3.25792 33.5279 4.76979 31.3504 7.13305C29.1729 9.48599 26.2988 12.9277 22.7281 17.4581C20.5506 20.3271 18.7653 22.7058 17.3721 24.5944ZM27.4804 29.7491C27.5527 29.6253 27.5785 29.5428 27.5578 29.5015C27.5475 29.4602 27.5062 29.4447 27.434 29.455C27.3721 29.4654 27.305 29.4912 27.2328 29.5324C24.467 30.8121 21.4175 32.3962 18.0842 34.2848C14.9056 36.132 12.4701 37.6697 10.7776 38.8978C9.07486 40.1361 7.91903 41.1062 7.31016 41.808C6.69096 42.52 6.41232 43.0102 6.47424 43.2786C6.69096 43.8978 7.37208 44.1196 8.51759 43.9442C9.6631 43.7688 11.0872 43.2734 12.79 42.4581C14.4928 41.6429 16.2782 40.5851 18.1461 39.2848C20.014 37.9948 21.7735 36.5345 23.4247 34.9039C25.0759 33.2837 26.4278 31.5655 27.4804 29.7491Z" fill="#2563EB"/>
<path d="M34.6012 26.0959C34.6837 26.0649 34.7353 26.0649 34.756 26.0959C34.7766 26.1269 34.7715 26.1733 34.7405 26.2352C34.7095 26.2868 34.6528 26.3281 34.5702 26.3591C33.5382 26.7719 32.3102 27.2827 30.886 27.8916C30.4319 28.098 30.1275 28.2889 29.9727 28.4643C29.8282 28.6294 29.7353 28.7739 29.6941 28.8978C29.6941 28.8978 29.6941 28.9029 29.6941 28.9132C29.6837 28.9132 29.6786 28.9184 29.6786 28.9287C29.6167 29.0629 29.498 29.2899 29.3225 29.6098C29.1471 29.9297 28.9768 30.229 28.8117 30.5077C26.273 34.4086 22.6094 37.8451 17.821 40.8173C15.788 42.0557 13.8272 43.0412 11.9386 43.7739C10.0501 44.517 8.50727 44.8988 7.31016 44.9194C7.31016 44.9194 7.305 44.9194 7.29468 44.9194C6.789 44.9091 6.40717 44.8317 6.14917 44.6872C5.88085 44.5531 5.70541 44.388 5.62285 44.1919C5.52997 44.0061 5.48353 43.8358 5.48353 43.681C5.42161 42.7006 6.43812 41.3745 8.53307 39.7027C9.57538 38.8668 10.8757 37.969 12.434 37.0092C13.9923 36.0495 15.7931 34.9865 17.8365 33.8204C21.3659 31.8183 24.5444 30.2084 27.3721 28.9906C27.661 28.8565 27.8571 28.7326 27.9603 28.6191C28.0738 28.5056 28.1461 28.4024 28.177 28.3095C28.3937 27.7419 28.5176 27.1898 28.5485 26.6532C28.5795 26.1062 28.4402 25.7192 28.1306 25.4922C27.6146 25.1826 26.6445 25.229 25.2204 25.6315C23.8065 26.0237 22.047 26.8338 19.9417 28.0618C17.8365 29.2899 15.5042 31.003 12.9448 33.2012C12.8932 33.2424 12.8004 33.3044 12.6662 33.3869C12.5217 33.4592 12.3669 33.5056 12.2018 33.5262C12.0367 33.5366 11.8974 33.4695 11.7838 33.325C11.5671 33.0257 11.5465 32.5613 11.7219 31.9318C11.887 31.3023 12.2895 30.4251 12.9294 29.3002C14.5393 26.4623 17.4753 22.195 21.7374 16.4984C21.7374 16.4984 21.7374 16.4932 21.7374 16.4829C21.7477 16.4829 21.7529 16.4829 21.7529 16.4829C25.8912 11.1785 29.24 7.13821 31.7993 4.36215C32.8932 3.17536 33.7601 2.30849 34.3999 1.76153C35.0501 1.20426 35.5403 0.848221 35.8705 0.693422C36.2111 0.538623 36.4742 0.476704 36.66 0.507664C37.1244 0.538623 37.3927 0.786301 37.465 1.2507C37.4753 1.99373 37.0212 3.11344 36.1027 4.60983C35.1946 6.0959 34.2348 7.52005 33.2235 8.88228C32.2121 10.2445 31.562 11.1011 31.273 11.4519C30.0346 13.0412 28.2699 15.0123 25.9789 17.3652C23.6879 19.7182 21.0098 22.1743 17.9448 24.7337C17.9448 24.7337 17.9448 24.7388 17.9448 24.7492C17.9345 24.7492 17.9242 24.7543 17.9139 24.7646C17.7488 24.8988 17.4804 25.131 17.1089 25.4612C16.7477 25.7811 16.3762 26.1475 15.9944 26.5603C15.7983 26.7977 15.6177 27.0298 15.4526 27.2569C15.4319 27.2878 15.4061 27.3136 15.3752 27.3343C14.3225 28.8307 13.5743 29.9659 13.1306 30.7399C12.6765 31.5139 12.465 32.0453 12.4959 32.3343C12.4959 32.3652 12.5062 32.3962 12.5269 32.4272C12.5475 32.4581 12.5836 32.4684 12.6352 32.4581C12.6868 32.4375 12.7694 32.3859 12.8829 32.3033C15.112 30.518 17.3205 28.9494 19.5083 27.5974C21.6961 26.2455 23.6569 25.2755 25.3907 24.6872C27.1347 24.0887 28.435 24.0268 29.2916 24.5015C29.6115 24.6666 29.885 24.9813 30.112 25.4457C30.3391 25.8998 30.3649 26.5655 30.1894 27.4426C30.1688 27.5974 30.1843 27.6903 30.2359 27.7213C30.2875 27.7419 30.37 27.7264 30.4835 27.6748C30.5248 27.6542 30.5661 27.6387 30.6074 27.6284C30.628 27.6181 30.6486 27.6078 30.6693 27.5974C32.207 26.9886 33.5176 26.4881 34.6012 26.0959ZM17.3721 24.5944C17.3514 24.6253 17.3256 24.6666 17.2947 24.7182C17.274 24.7595 17.2534 24.8007 17.2328 24.842C17.2224 24.873 17.2224 24.8936 17.2328 24.9039C17.2431 24.9143 17.2792 24.9039 17.3411 24.873C17.403 24.842 17.4959 24.7749 17.6198 24.6718C20.5919 22.1743 23.4453 19.4189 26.1801 16.4055C28.9149 13.3921 31.1698 10.6109 32.9448 8.06184C34.7199 5.5025 35.6641 3.68104 35.7776 2.59745C35.0037 3.25792 33.5279 4.76979 31.3504 7.13305C29.1729 9.48599 26.2988 12.9277 22.7281 17.4581C20.5506 20.3271 18.7653 22.7058 17.3721 24.5944ZM27.4804 29.7491C27.5527 29.6253 27.5785 29.5428 27.5578 29.5015C27.5475 29.4602 27.5062 29.4447 27.434 29.455C27.3721 29.4654 27.305 29.4912 27.2328 29.5324C24.467 30.8121 21.4175 32.3962 18.0842 34.2848C14.9056 36.132 12.4701 37.6697 10.7776 38.8978C9.07486 40.1361 7.91903 41.1062 7.31016 41.808C6.69096 42.52 6.41232 43.0102 6.47424 43.2786C6.69096 43.8978 7.37208 44.1196 8.51759 43.9442C9.6631 43.7688 11.0872 43.2734 12.79 42.4581C14.4928 41.6429 16.2782 40.5851 18.1461 39.2848C20.014 37.9948 21.7735 36.5345 23.4247 34.9039C25.0759 33.2837 26.4278 31.5655 27.4804 29.7491Z" fill="black" fill-opacity="0.2"/>
<path d="M47.3263 26.0959C47.3572 26.1165 47.3624 26.1527 47.3417 26.2043C47.3211 26.2559 47.2747 26.3075 47.2024 26.3591C47.1921 26.3591 47.1869 26.3591 47.1869 26.3591C47.1869 26.3591 47.1869 26.3642 47.1869 26.3745C44.5347 28.036 42.0167 29.3622 39.6328 30.3529C37.2489 31.3436 35.4171 31.7873 34.1374 31.6841C33.3015 31.6325 32.7133 31.3487 32.3727 30.8327C31.9909 30.0691 32.0837 29.1145 32.6513 27.969C32.8165 27.649 32.9971 27.3498 33.1931 27.0711C33.3479 26.8441 33.5027 26.6274 33.6575 26.421C34.3696 25.6057 34.9578 25.0123 35.4222 24.6408C35.4635 24.5995 35.4996 24.5634 35.5306 24.5324C35.5409 24.5324 35.5461 24.5273 35.5461 24.517C35.866 24.259 36.1756 24.0164 36.4749 23.7894C38.6111 22.2414 40.1746 21.6532 41.1653 22.0247C41.4026 22.1279 41.5832 22.2878 41.7071 22.5046C41.8309 22.711 41.8464 22.9586 41.7535 23.2476C41.6193 23.6088 41.3304 23.939 40.8866 24.2383C40.4532 24.5376 39.9372 24.8007 39.3386 25.0278C38.0693 25.5025 36.8773 25.8585 35.7628 26.0959C35.6286 26.1165 35.4326 26.1991 35.1746 26.3436C34.9269 26.4777 34.6637 26.6841 34.3851 26.9628C34.3748 26.9731 34.3696 26.9783 34.3696 26.9783C34.349 27.0092 34.3232 27.0402 34.2922 27.0711C33.6833 27.7522 33.286 28.4953 33.1003 29.3002C33.1003 29.8678 33.3118 30.2909 33.7349 30.5696C34.158 30.8379 34.6637 30.9721 35.252 30.9721C36.4078 30.9721 38.0229 30.5438 40.0972 29.6872C42.1715 28.8307 44.5296 27.6336 47.1715 26.0959C47.2437 26.0546 47.2953 26.0546 47.3263 26.0959ZM35.9021 25.6005C35.8195 25.6625 35.7679 25.7141 35.7473 25.7553C35.7267 25.7966 35.7731 25.8069 35.8866 25.7863C36.4542 25.6521 37.1199 25.4561 37.8835 25.1981C38.4408 25.0123 38.9 24.8162 39.2612 24.6098C39.6328 24.3931 39.7876 24.197 39.7256 24.0216C39.7256 24.0216 39.7256 24.0164 39.7256 24.0061C39.7256 24.0061 39.7205 24.001 39.7102 23.9906C39.7102 23.9803 39.7102 23.9752 39.7102 23.9752C39.6276 23.8823 39.4831 23.841 39.2767 23.8513C39.1116 23.872 38.9155 23.9184 38.6885 23.9906C38.6782 23.9906 38.673 23.9906 38.673 23.9906C38.673 24.001 38.673 24.0061 38.673 24.0061C38.642 24.0061 38.6111 24.0164 38.5801 24.0371C38.5801 24.0371 38.575 24.0371 38.5646 24.0371C38.5646 24.0371 38.5595 24.0371 38.5492 24.0371C38.2705 24.1403 37.9558 24.2951 37.6049 24.5015C37.0579 24.7904 36.4903 25.1568 35.9021 25.6005Z" fill="#2563EB"/>
<path d="M47.3263 26.0959C47.3572 26.1165 47.3624 26.1527 47.3417 26.2043C47.3211 26.2559 47.2747 26.3075 47.2024 26.3591C47.1921 26.3591 47.1869 26.3591 47.1869 26.3591C47.1869 26.3591 47.1869 26.3642 47.1869 26.3745C44.5347 28.036 42.0167 29.3622 39.6328 30.3529C37.2489 31.3436 35.4171 31.7873 34.1374 31.6841C33.3015 31.6325 32.7133 31.3487 32.3727 30.8327C31.9909 30.0691 32.0837 29.1145 32.6513 27.969C32.8165 27.649 32.9971 27.3498 33.1931 27.0711C33.3479 26.8441 33.5027 26.6274 33.6575 26.421C34.3696 25.6057 34.9578 25.0123 35.4222 24.6408C35.4635 24.5995 35.4996 24.5634 35.5306 24.5324C35.5409 24.5324 35.5461 24.5273 35.5461 24.517C35.866 24.259 36.1756 24.0164 36.4749 23.7894C38.6111 22.2414 40.1746 21.6532 41.1653 22.0247C41.4026 22.1279 41.5832 22.2878 41.7071 22.5046C41.8309 22.711 41.8464 22.9586 41.7535 23.2476C41.6193 23.6088 41.3304 23.939 40.8866 24.2383C40.4532 24.5376 39.9372 24.8007 39.3386 25.0278C38.0693 25.5025 36.8773 25.8585 35.7628 26.0959C35.6286 26.1165 35.4326 26.1991 35.1746 26.3436C34.9269 26.4777 34.6637 26.6841 34.3851 26.9628C34.3748 26.9731 34.3696 26.9783 34.3696 26.9783C34.349 27.0092 34.3232 27.0402 34.2922 27.0711C33.6833 27.7522 33.286 28.4953 33.1003 29.3002C33.1003 29.8678 33.3118 30.2909 33.7349 30.5696C34.158 30.8379 34.6637 30.9721 35.252 30.9721C36.4078 30.9721 38.0229 30.5438 40.0972 29.6872C42.1715 28.8307 44.5296 27.6336 47.1715 26.0959C47.2437 26.0546 47.2953 26.0546 47.3263 26.0959ZM35.9021 25.6005C35.8195 25.6625 35.7679 25.7141 35.7473 25.7553C35.7267 25.7966 35.7731 25.8069 35.8866 25.7863C36.4542 25.6521 37.1199 25.4561 37.8835 25.1981C38.4408 25.0123 38.9 24.8162 39.2612 24.6098C39.6328 24.3931 39.7876 24.197 39.7256 24.0216C39.7256 24.0216 39.7256 24.0164 39.7256 24.0061C39.7256 24.0061 39.7205 24.001 39.7102 23.9906C39.7102 23.9803 39.7102 23.9752 39.7102 23.9752C39.6276 23.8823 39.4831 23.841 39.2767 23.8513C39.1116 23.872 38.9155 23.9184 38.6885 23.9906C38.6782 23.9906 38.673 23.9906 38.673 23.9906C38.673 24.001 38.673 24.0061 38.673 24.0061C38.642 24.0061 38.6111 24.0164 38.5801 24.0371C38.5801 24.0371 38.575 24.0371 38.5646 24.0371C38.5646 24.0371 38.5595 24.0371 38.5492 24.0371C38.2705 24.1403 37.9558 24.2951 37.6049 24.5015C37.0579 24.7904 36.4903 25.1568 35.9021 25.6005Z" fill="black" fill-opacity="0.2"/>
<path d="M65.33 26.1114C65.3713 26.0701 65.4074 26.0546 65.4383 26.0649C65.4796 26.0649 65.5002 26.0856 65.5002 26.1269C65.5002 26.1578 65.4744 26.1991 65.4228 26.2507C62.3475 28.7997 59.7314 30.6521 57.5746 31.808C55.428 32.9638 53.8078 33.2734 52.7139 32.7368C52.0018 32.3549 51.5838 31.6893 51.46 30.7399C51.3465 29.7904 51.5426 28.6398 52.0482 27.2878C52.1411 27.0505 52.2443 26.8131 52.3578 26.5758C52.5539 26.1733 52.6932 25.8018 52.7758 25.4612C52.7964 25.3374 52.7706 25.2703 52.6984 25.26C52.6365 25.2393 52.5539 25.2548 52.4507 25.3064C52.3475 25.3477 52.2495 25.3941 52.1566 25.4457C51.3826 25.9824 50.3919 26.8028 49.1845 27.907C47.977 29.0113 46.847 30.0691 45.7944 31.0804C44.7521 32.0814 44.0709 32.711 43.751 32.969C43.4827 33.196 43.2092 33.3663 42.9306 33.4798C42.6519 33.583 42.4559 33.5882 42.3424 33.4953C42.2185 33.3921 42.2546 33.1392 42.4507 32.7368C42.4714 32.6955 42.6881 32.324 43.1009 31.6222C43.5033 30.9101 44.0142 30.0536 44.6334 29.0526C45.2526 28.0412 45.8872 27.0608 46.5374 26.1114C46.6922 25.8947 46.8728 25.7657 47.0792 25.7244C47.2959 25.6728 47.5075 25.6934 47.7139 25.7863C47.9203 25.8689 48.0441 25.9927 48.0854 26.1578C48.137 26.3126 48.0751 26.5397 47.8996 26.8389C47.7035 27.1279 47.265 27.6697 46.5838 28.4643C45.7582 29.4344 44.9275 30.4664 44.0916 31.5603C44.009 31.6841 43.9368 31.8028 43.8749 31.9163C43.8026 32.0195 43.7613 32.1021 43.751 32.164C43.7304 32.2259 43.7613 32.2414 43.8439 32.2104C43.9265 32.1692 44.0761 32.0557 44.2928 31.8699C44.9327 31.292 45.717 30.5541 46.6458 29.6563C47.6158 28.7275 48.6065 27.7987 49.6179 26.8699C50.6396 25.9308 51.5477 25.1619 52.3424 24.5634C53.137 23.9545 53.6943 23.6862 54.0142 23.7584C54.5199 23.9029 54.7314 24.2332 54.6489 24.7492C54.5663 25.2651 54.2051 26.1527 53.5653 27.4117C53.2247 28.1238 52.9719 28.8513 52.8067 29.5943C52.6519 30.3271 52.621 30.9617 52.7139 31.4984C52.8171 32.0247 53.0854 32.3343 53.5188 32.4272C54.5302 32.5613 55.6654 32.3394 56.9244 31.7615C58.1937 31.1836 59.4941 30.4199 60.8253 29.4705C62.1669 28.5211 63.4621 27.5562 64.7108 26.5758C64.9172 26.421 65.1236 26.2662 65.33 26.1114Z" fill="#2563EB"/>
<path d="M65.33 26.1114C65.3713 26.0701 65.4074 26.0546 65.4383 26.0649C65.4796 26.0649 65.5002 26.0856 65.5002 26.1269C65.5002 26.1578 65.4744 26.1991 65.4228 26.2507C62.3475 28.7997 59.7314 30.6521 57.5746 31.808C55.428 32.9638 53.8078 33.2734 52.7139 32.7368C52.0018 32.3549 51.5838 31.6893 51.46 30.7399C51.3465 29.7904 51.5426 28.6398 52.0482 27.2878C52.1411 27.0505 52.2443 26.8131 52.3578 26.5758C52.5539 26.1733 52.6932 25.8018 52.7758 25.4612C52.7964 25.3374 52.7706 25.2703 52.6984 25.26C52.6365 25.2393 52.5539 25.2548 52.4507 25.3064C52.3475 25.3477 52.2495 25.3941 52.1566 25.4457C51.3826 25.9824 50.3919 26.8028 49.1845 27.907C47.977 29.0113 46.847 30.0691 45.7944 31.0804C44.7521 32.0814 44.0709 32.711 43.751 32.969C43.4827 33.196 43.2092 33.3663 42.9306 33.4798C42.6519 33.583 42.4559 33.5882 42.3424 33.4953C42.2185 33.3921 42.2546 33.1392 42.4507 32.7368C42.4714 32.6955 42.6881 32.324 43.1009 31.6222C43.5033 30.9101 44.0142 30.0536 44.6334 29.0526C45.2526 28.0412 45.8872 27.0608 46.5374 26.1114C46.6922 25.8947 46.8728 25.7657 47.0792 25.7244C47.2959 25.6728 47.5075 25.6934 47.7139 25.7863C47.9203 25.8689 48.0441 25.9927 48.0854 26.1578C48.137 26.3126 48.0751 26.5397 47.8996 26.8389C47.7035 27.1279 47.265 27.6697 46.5838 28.4643C45.7582 29.4344 44.9275 30.4664 44.0916 31.5603C44.009 31.6841 43.9368 31.8028 43.8749 31.9163C43.8026 32.0195 43.7613 32.1021 43.751 32.164C43.7304 32.2259 43.7613 32.2414 43.8439 32.2104C43.9265 32.1692 44.0761 32.0557 44.2928 31.8699C44.9327 31.292 45.717 30.5541 46.6458 29.6563C47.6158 28.7275 48.6065 27.7987 49.6179 26.8699C50.6396 25.9308 51.5477 25.1619 52.3424 24.5634C53.137 23.9545 53.6943 23.6862 54.0142 23.7584C54.5199 23.9029 54.7314 24.2332 54.6489 24.7492C54.5663 25.2651 54.2051 26.1527 53.5653 27.4117C53.2247 28.1238 52.9719 28.8513 52.8067 29.5943C52.6519 30.3271 52.621 30.9617 52.7139 31.4984C52.8171 32.0247 53.0854 32.3343 53.5188 32.4272C54.5302 32.5613 55.6654 32.3394 56.9244 31.7615C58.1937 31.1836 59.4941 30.4199 60.8253 29.4705C62.1669 28.5211 63.4621 27.5562 64.7108 26.5758C64.9172 26.421 65.1236 26.2662 65.33 26.1114Z" fill="black" fill-opacity="0.2"/>
<path d="M15.6842 26.0959C15.7151 26.1165 15.7203 26.1527 15.6996 26.2043C15.679 26.2559 15.6326 26.3075 15.5603 26.3591C15.55 26.3591 15.5448 26.3591 15.5448 26.3591C15.5448 26.3591 15.5448 26.3642 15.5448 26.3745C12.8926 28.036 10.3746 29.3622 7.99065 30.3529C5.60675 31.3436 3.77497 31.7873 2.4953 31.6841C1.65938 31.6325 1.07115 31.3487 0.730591 30.8327C0.348754 30.0691 0.441634 29.1145 1.00923 27.969C1.17435 27.649 1.35495 27.3498 1.55102 27.0711C1.70582 26.8441 1.86062 26.6274 2.01542 26.421C2.7275 25.6057 3.31573 25.0123 3.78013 24.6408C3.82141 24.5995 3.85753 24.5634 3.88849 24.5324C3.89881 24.5324 3.90397 24.5273 3.90397 24.517C4.22388 24.259 4.53348 24.0164 4.83276 23.7894C6.96898 22.2414 8.53245 21.6532 9.52316 22.0247C9.76052 22.1279 9.94112 22.2878 10.065 22.5046C10.1888 22.711 10.2043 22.9586 10.1114 23.2476C9.97724 23.6088 9.68828 23.939 9.24452 24.2383C8.81109 24.5376 8.29509 24.8007 7.69654 25.0278C6.42719 25.5025 5.23524 25.8585 4.12068 26.0959C3.98653 26.1165 3.79045 26.1991 3.53245 26.3436C3.28477 26.4777 3.02161 26.6841 2.74298 26.9628C2.73266 26.9731 2.7275 26.9783 2.7275 26.9783C2.70686 27.0092 2.68106 27.0402 2.6501 27.0711C2.04122 27.7522 1.6439 28.4953 1.45815 29.3002C1.45815 29.8678 1.6697 30.2909 2.09282 30.5696C2.51594 30.8379 3.02161 30.9721 3.60985 30.9721C4.76568 30.9721 6.38075 30.5438 8.45505 29.6872C10.5294 28.8307 12.8875 27.6336 15.5294 26.0959C15.6016 26.0546 15.6532 26.0546 15.6842 26.0959ZM4.26 25.6005C4.17744 25.6625 4.12584 25.7141 4.1052 25.7553C4.08456 25.7966 4.131 25.8069 4.24452 25.7863C4.81212 25.6521 5.47775 25.4561 6.24143 25.1981C6.7987 25.0123 7.25794 24.8162 7.61914 24.6098C7.99065 24.3931 8.14545 24.197 8.08353 24.0216C8.08353 24.0216 8.08353 24.0164 8.08353 24.0061C8.08353 24.0061 8.07837 24.001 8.06805 23.9906C8.06805 23.9803 8.06805 23.9752 8.06805 23.9752C7.98549 23.8823 7.84101 23.841 7.63462 23.8513C7.4695 23.872 7.27342 23.9184 7.04638 23.9906C7.03606 23.9906 7.0309 23.9906 7.0309 23.9906C7.0309 24.001 7.0309 24.0061 7.0309 24.0061C6.99994 24.0061 6.96898 24.0164 6.93802 24.0371C6.93802 24.0371 6.93286 24.0371 6.92254 24.0371C6.92254 24.0371 6.91738 24.0371 6.90706 24.0371C6.62842 24.1403 6.31367 24.2951 5.96279 24.5015C5.41583 24.7904 4.84824 25.1568 4.26 25.6005Z" stroke="white" mask="url(#path-1-outside-1_11_6094)"/>
<path d="M34.6012 26.0959C34.6837 26.0649 34.7353 26.0649 34.756 26.0959C34.7766 26.1269 34.7715 26.1733 34.7405 26.2352C34.7095 26.2868 34.6528 26.3281 34.5702 26.3591C33.5382 26.7719 32.3102 27.2827 30.886 27.8916C30.4319 28.098 30.1275 28.2889 29.9727 28.4643C29.8282 28.6294 29.7353 28.7739 29.6941 28.8978C29.6941 28.8978 29.6941 28.9029 29.6941 28.9132C29.6837 28.9132 29.6786 28.9184 29.6786 28.9287C29.6167 29.0629 29.498 29.2899 29.3225 29.6098C29.1471 29.9297 28.9768 30.229 28.8117 30.5077C26.273 34.4086 22.6094 37.8451 17.821 40.8173C15.788 42.0557 13.8272 43.0412 11.9386 43.7739C10.0501 44.517 8.50727 44.8988 7.31016 44.9194C7.31016 44.9194 7.305 44.9194 7.29468 44.9194C6.789 44.9091 6.40717 44.8317 6.14917 44.6872C5.88085 44.5531 5.70541 44.388 5.62285 44.1919C5.52997 44.0061 5.48353 43.8358 5.48353 43.681C5.42161 42.7006 6.43812 41.3745 8.53307 39.7027C9.57538 38.8668 10.8757 37.969 12.434 37.0092C13.9923 36.0495 15.7931 34.9865 17.8365 33.8204C21.3659 31.8183 24.5444 30.2084 27.3721 28.9906C27.661 28.8565 27.8571 28.7326 27.9603 28.6191C28.0738 28.5056 28.1461 28.4024 28.177 28.3095C28.3937 27.7419 28.5176 27.1898 28.5485 26.6532C28.5795 26.1062 28.4402 25.7192 28.1306 25.4922C27.6146 25.1826 26.6445 25.229 25.2204 25.6315C23.8065 26.0237 22.047 26.8338 19.9417 28.0618C17.8365 29.2899 15.5042 31.003 12.9448 33.2012C12.8932 33.2424 12.8004 33.3044 12.6662 33.3869C12.5217 33.4592 12.3669 33.5056 12.2018 33.5262C12.0367 33.5366 11.8974 33.4695 11.7838 33.325C11.5671 33.0257 11.5465 32.5613 11.7219 31.9318C11.887 31.3023 12.2895 30.4251 12.9294 29.3002C14.5393 26.4623 17.4753 22.195 21.7374 16.4984C21.7374 16.4984 21.7374 16.4932 21.7374 16.4829C21.7477 16.4829 21.7529 16.4829 21.7529 16.4829C25.8912 11.1785 29.24 7.13821 31.7993 4.36215C32.8932 3.17536 33.7601 2.30849 34.3999 1.76153C35.0501 1.20426 35.5403 0.848221 35.8705 0.693422C36.2111 0.538623 36.4742 0.476704 36.66 0.507664C37.1244 0.538623 37.3927 0.786301 37.465 1.2507C37.4753 1.99373 37.0212 3.11344 36.1027 4.60983C35.1946 6.0959 34.2348 7.52005 33.2235 8.88228C32.2121 10.2445 31.562 11.1011 31.273 11.4519C30.0346 13.0412 28.2699 15.0123 25.9789 17.3652C23.6879 19.7182 21.0098 22.1743 17.9448 24.7337C17.9448 24.7337 17.9448 24.7388 17.9448 24.7492C17.9345 24.7492 17.9242 24.7543 17.9139 24.7646C17.7488 24.8988 17.4804 25.131 17.1089 25.4612C16.7477 25.7811 16.3762 26.1475 15.9944 26.5603C15.7983 26.7977 15.6177 27.0298 15.4526 27.2569C15.4319 27.2878 15.4061 27.3136 15.3752 27.3343C14.3225 28.8307 13.5743 29.9659 13.1306 30.7399C12.6765 31.5139 12.465 32.0453 12.4959 32.3343C12.4959 32.3652 12.5062 32.3962 12.5269 32.4272C12.5475 32.4581 12.5836 32.4684 12.6352 32.4581C12.6868 32.4375 12.7694 32.3859 12.8829 32.3033C15.112 30.518 17.3205 28.9494 19.5083 27.5974C21.6961 26.2455 23.6569 25.2755 25.3907 24.6872C27.1347 24.0887 28.435 24.0268 29.2916 24.5015C29.6115 24.6666 29.885 24.9813 30.112 25.4457C30.3391 25.8998 30.3649 26.5655 30.1894 27.4426C30.1688 27.5974 30.1843 27.6903 30.2359 27.7213C30.2875 27.7419 30.37 27.7264 30.4835 27.6748C30.5248 27.6542 30.5661 27.6387 30.6074 27.6284C30.628 27.6181 30.6486 27.6078 30.6693 27.5974C32.207 26.9886 33.5176 26.4881 34.6012 26.0959ZM17.3721 24.5944C17.3514 24.6253 17.3256 24.6666 17.2947 24.7182C17.274 24.7595 17.2534 24.8007 17.2328 24.842C17.2224 24.873 17.2224 24.8936 17.2328 24.9039C17.2431 24.9143 17.2792 24.9039 17.3411 24.873C17.403 24.842 17.4959 24.7749 17.6198 24.6718C20.5919 22.1743 23.4453 19.4189 26.1801 16.4055C28.9149 13.3921 31.1698 10.6109 32.9448 8.06184C34.7199 5.5025 35.6641 3.68104 35.7776 2.59745C35.0037 3.25792 33.5279 4.76979 31.3504 7.13305C29.1729 9.48599 26.2988 12.9277 22.7281 17.4581C20.5506 20.3271 18.7653 22.7058 17.3721 24.5944ZM27.4804 29.7491C27.5527 29.6253 27.5785 29.5428 27.5578 29.5015C27.5475 29.4602 27.5062 29.4447 27.434 29.455C27.3721 29.4654 27.305 29.4912 27.2328 29.5324C24.467 30.8121 21.4175 32.3962 18.0842 34.2848C14.9056 36.132 12.4701 37.6697 10.7776 38.8978C9.07486 40.1361 7.91903 41.1062 7.31016 41.808C6.69096 42.52 6.41232 43.0102 6.47424 43.2786C6.69096 43.8978 7.37208 44.1196 8.51759 43.9442C9.6631 43.7688 11.0872 43.2734 12.79 42.4581C14.4928 41.6429 16.2782 40.5851 18.1461 39.2848C20.014 37.9948 21.7735 36.5345 23.4247 34.9039C25.0759 33.2837 26.4278 31.5655 27.4804 29.7491Z" stroke="white" mask="url(#path-1-outside-1_11_6094)"/>
<path d="M47.3263 26.0959C47.3572 26.1165 47.3624 26.1527 47.3417 26.2043C47.3211 26.2559 47.2747 26.3075 47.2024 26.3591C47.1921 26.3591 47.1869 26.3591 47.1869 26.3591C47.1869 26.3591 47.1869 26.3642 47.1869 26.3745C44.5347 28.036 42.0167 29.3622 39.6328 30.3529C37.2489 31.3436 35.4171 31.7873 34.1374 31.6841C33.3015 31.6325 32.7133 31.3487 32.3727 30.8327C31.9909 30.0691 32.0837 29.1145 32.6513 27.969C32.8165 27.649 32.9971 27.3498 33.1931 27.0711C33.3479 26.8441 33.5027 26.6274 33.6575 26.421C34.3696 25.6057 34.9578 25.0123 35.4222 24.6408C35.4635 24.5995 35.4996 24.5634 35.5306 24.5324C35.5409 24.5324 35.5461 24.5273 35.5461 24.517C35.866 24.259 36.1756 24.0164 36.4749 23.7894C38.6111 22.2414 40.1746 21.6532 41.1653 22.0247C41.4026 22.1279 41.5832 22.2878 41.7071 22.5046C41.8309 22.711 41.8464 22.9586 41.7535 23.2476C41.6193 23.6088 41.3304 23.939 40.8866 24.2383C40.4532 24.5376 39.9372 24.8007 39.3386 25.0278C38.0693 25.5025 36.8773 25.8585 35.7628 26.0959C35.6286 26.1165 35.4326 26.1991 35.1746 26.3436C34.9269 26.4777 34.6637 26.6841 34.3851 26.9628C34.3748 26.9731 34.3696 26.9783 34.3696 26.9783C34.349 27.0092 34.3232 27.0402 34.2922 27.0711C33.6833 27.7522 33.286 28.4953 33.1003 29.3002C33.1003 29.8678 33.3118 30.2909 33.7349 30.5696C34.158 30.8379 34.6637 30.9721 35.252 30.9721C36.4078 30.9721 38.0229 30.5438 40.0972 29.6872C42.1715 28.8307 44.5296 27.6336 47.1715 26.0959C47.2437 26.0546 47.2953 26.0546 47.3263 26.0959ZM35.9021 25.6005C35.8195 25.6625 35.7679 25.7141 35.7473 25.7553C35.7267 25.7966 35.7731 25.8069 35.8866 25.7863C36.4542 25.6521 37.1199 25.4561 37.8835 25.1981C38.4408 25.0123 38.9 24.8162 39.2612 24.6098C39.6328 24.3931 39.7876 24.197 39.7256 24.0216C39.7256 24.0216 39.7256 24.0164 39.7256 24.0061C39.7256 24.0061 39.7205 24.001 39.7102 23.9906C39.7102 23.9803 39.7102 23.9752 39.7102 23.9752C39.6276 23.8823 39.4831 23.841 39.2767 23.8513C39.1116 23.872 38.9155 23.9184 38.6885 23.9906C38.6782 23.9906 38.673 23.9906 38.673 23.9906C38.673 24.001 38.673 24.0061 38.673 24.0061C38.642 24.0061 38.6111 24.0164 38.5801 24.0371C38.5801 24.0371 38.575 24.0371 38.5646 24.0371C38.5646 24.0371 38.5595 24.0371 38.5492 24.0371C38.2705 24.1403 37.9558 24.2951 37.6049 24.5015C37.0579 24.7904 36.4903 25.1568 35.9021 25.6005Z" stroke="white" mask="url(#path-1-outside-1_11_6094)"/>
<path d="M65.33 26.1114C65.3713 26.0701 65.4074 26.0546 65.4383 26.0649C65.4796 26.0649 65.5002 26.0856 65.5002 26.1269C65.5002 26.1578 65.4744 26.1991 65.4228 26.2507C62.3475 28.7997 59.7314 30.6521 57.5746 31.808C55.428 32.9638 53.8078 33.2734 52.7139 32.7368C52.0018 32.3549 51.5838 31.6893 51.46 30.7399C51.3465 29.7904 51.5426 28.6398 52.0482 27.2878C52.1411 27.0505 52.2443 26.8131 52.3578 26.5758C52.5539 26.1733 52.6932 25.8018 52.7758 25.4612C52.7964 25.3374 52.7706 25.2703 52.6984 25.26C52.6365 25.2393 52.5539 25.2548 52.4507 25.3064C52.3475 25.3477 52.2495 25.3941 52.1566 25.4457C51.3826 25.9824 50.3919 26.8028 49.1845 27.907C47.977 29.0113 46.847 30.0691 45.7944 31.0804C44.7521 32.0814 44.0709 32.711 43.751 32.969C43.4827 33.196 43.2092 33.3663 42.9306 33.4798C42.6519 33.583 42.4559 33.5882 42.3424 33.4953C42.2185 33.3921 42.2546 33.1392 42.4507 32.7368C42.4714 32.6955 42.6881 32.324 43.1009 31.6222C43.5033 30.9101 44.0142 30.0536 44.6334 29.0526C45.2526 28.0412 45.8872 27.0608 46.5374 26.1114C46.6922 25.8947 46.8728 25.7657 47.0792 25.7244C47.2959 25.6728 47.5075 25.6934 47.7139 25.7863C47.9203 25.8689 48.0441 25.9927 48.0854 26.1578C48.137 26.3126 48.0751 26.5397 47.8996 26.8389C47.7035 27.1279 47.265 27.6697 46.5838 28.4643C45.7582 29.4344 44.9275 30.4664 44.0916 31.5603C44.009 31.6841 43.9368 31.8028 43.8749 31.9163C43.8026 32.0195 43.7613 32.1021 43.751 32.164C43.7304 32.2259 43.7613 32.2414 43.8439 32.2104C43.9265 32.1692 44.0761 32.0557 44.2928 31.8699C44.9327 31.292 45.717 30.5541 46.6458 29.6563C47.6158 28.7275 48.6065 27.7987 49.6179 26.8699C50.6396 25.9308 51.5477 25.1619 52.3424 24.5634C53.137 23.9545 53.6943 23.6862 54.0142 23.7584C54.5199 23.9029 54.7314 24.2332 54.6489 24.7492C54.5663 25.2651 54.2051 26.1527 53.5653 27.4117C53.2247 28.1238 52.9719 28.8513 52.8067 29.5943C52.6519 30.3271 52.621 30.9617 52.7139 31.4984C52.8171 32.0247 53.0854 32.3343 53.5188 32.4272C54.5302 32.5613 55.6654 32.3394 56.9244 31.7615C58.1937 31.1836 59.4941 30.4199 60.8253 29.4705C62.1669 28.5211 63.4621 27.5562 64.7108 26.5758C64.9172 26.421 65.1236 26.2662 65.33 26.1114Z" stroke="white" mask="url(#path-1-outside-1_11_6094)"/>
</svg>
